<svg width="32" height="25" viewBox="0 0 32 25" fill="none" xmlns="http://www.w3.org/2000/svg">
<path id="Vector" d="M0 1.13636C0 0.834981 0.105357 0.545943 0.292893 0.332833C0.48043 0.119724 0.734784 0 1 0H23C23.2652 0 23.5196 0.119724 23.7071 0.332833C23.8946 0.545943 24 0.834981 24 1.13636C24 1.43775 23.8946 1.72678 23.7071 1.93989C23.5196 2.153 23.2652 2.27273 23 2.27273H1C0.734784 2.27273 0.48043 2.153 0.292893 1.93989C0.105357 1.72678 0 1.43775 0 1.13636ZM0 23.8636C0 23.5623 0.105357 23.2732 0.292893 23.0601C0.48043 22.847 0.734784 22.7273 1 22.7273H21C21.2652 22.7273 21.5196 22.847 21.7071 23.0601C21.8946 23.2732 22 23.5623 22 23.8636C22 24.165 21.8946 24.4541 21.7071 24.6672C21.5196 24.8803 21.2652 25 21 25H1C0.734784 25 0.48043 24.8803 0.292893 24.6672C0.105357 24.4541 0 24.165 0 23.8636ZM1 11.3636C0.734784 11.3636 0.48043 11.4834 0.292893 11.6965C0.105357 11.9096 0 12.1986 0 12.5C0 12.8014 0.105357 13.0904 0.292893 13.3035C0.48043 13.5166 0.734784 13.6364 1 13.6364H31C31.2652 13.6364 31.5196 13.5166 31.7071 13.3035C31.8946 13.0904 32 12.8014 32 12.5C32 12.1986 31.8946 11.9096 31.7071 11.6965C31.5196 11.4834 31.2652 11.3636 31 11.3636H1Z" fill="black"/>
</svg>
