<svg width="21" height="19" viewBox="0 0 21 19" fill="none" xmlns="http://www.w3.org/2000/svg">
<g id="ph:arrow-up">
<path id="Vector" d="M9.3913 4.13378C9.45066 4.18688 9.49774 4.24995 9.52987 4.31938C9.562 4.38882 9.57853 4.46325 9.57853 4.53844C9.57853 4.61362 9.562 4.68807 9.52987 4.75754C9.49774 4.82701 9.45066 4.89014 9.3913 4.9433L4.735 9.11794L17.2388 9.111C17.4081 9.11091 17.5705 9.17109 17.6902 9.27832C17.8099 9.38554 17.8772 9.53102 17.8772 9.68275C17.8772 9.83448 17.8099 9.98003 17.6902 10.0874C17.5705 10.1947 17.4081 10.2551 17.2388 10.2552L4.735 10.2621L9.3913 14.4316C9.51109 14.5389 9.57839 14.6845 9.57839 14.8363C9.57839 14.9881 9.51109 15.1337 9.3913 15.2411C9.27151 15.3486 9.10904 15.409 8.93964 15.4091C8.77023 15.4091 8.60776 15.3489 8.48797 15.2416L2.74241 10.0959C2.68305 10.0428 2.63597 9.97974 2.60384 9.91031C2.57171 9.84088 2.55518 9.76644 2.55518 9.69126C2.55518 9.61607 2.57171 9.54162 2.60384 9.47215C2.63597 9.40268 2.68305 9.33956 2.74241 9.28639L8.48797 4.13428C8.54726 4.08105 8.61767 4.03882 8.69517 4.00998C8.77267 3.98115 8.85574 3.96628 8.93964 3.96624C9.02353 3.96619 9.1066 3.98096 9.1841 4.00971C9.2616 4.03846 9.33201 4.08062 9.3913 4.13378Z" fill="#595B5C"/>
</g>
</svg>
