<svg width="27" height="23" viewBox="0 0 27 23" fill="none" xmlns="http://www.w3.org/2000/svg">
<g id="ph:arrow-up" clip-path="url(#clip0_132_394)">
<path id="Vector" d="M14.4001 18.2289C14.3227 18.1631 14.2613 18.0849 14.2193 17.9989C14.1774 17.9128 14.1558 17.8206 14.1558 17.7274C14.1558 17.6343 14.1773 17.542 14.2191 17.4559C14.261 17.3698 14.3224 17.2916 14.3997 17.2258L20.4688 12.0538L4.1661 12.0598C3.94534 12.0599 3.7336 11.9853 3.57745 11.8524C3.42131 11.7195 3.33355 11.5392 3.33348 11.3512C3.33341 11.1632 3.42104 10.9828 3.57709 10.8498C3.73314 10.7168 3.94482 10.642 4.16558 10.642L20.4683 10.636L14.3954 5.46851C14.2392 5.33554 14.1514 5.15516 14.1513 4.96704C14.1513 4.77892 14.2389 4.59848 14.3951 4.4654C14.5512 4.33232 14.763 4.25752 14.9839 4.25744C15.2048 4.25735 15.4166 4.33201 15.5729 4.46497L23.0664 10.8424C23.1438 10.9082 23.2052 10.9864 23.2471 11.0724C23.2891 11.1585 23.3107 11.2507 23.3107 11.3439C23.3107 11.437 23.2892 11.5293 23.2473 11.6154C23.2055 11.7015 23.1441 11.7797 23.0668 11.8455L15.5779 18.2284C15.5006 18.2944 15.4088 18.3467 15.3078 18.3824C15.2068 18.4181 15.0984 18.4365 14.9891 18.4366C14.8797 18.4366 14.7714 18.4183 14.6703 18.3827C14.5692 18.347 14.4774 18.2948 14.4001 18.2289Z" fill="#F4F6F8"/>
</g>
<defs>
<clipPath id="clip0_132_394">
<rect width="22.6851" height="26.6354" fill="white" transform="translate(26.6353) rotate(89.9791)"/>
</clipPath>
</defs>
</svg>
