<svg width="27" height="27" viewBox="0 0 31 30" fill="none" xmlns="http://www.w3.org/2000/svg">
<rect x="0.25" y="0.25" width="30.5" height="29.5" rx="14.75" stroke="#898A8B" stroke-width="0.5"/>
<g clip-path="url(#clip0_83_63)">
<path d="M15.5 14C14.837 14 14.2011 13.7366 13.7322 13.2678C13.2634 12.7989 13 12.163 13 11.5C13 10.837 13.2634 10.2011 13.7322 9.73223C14.2011 9.26339 14.837 9 15.5 9C16.163 9 16.7989 9.26339 17.2678 9.73223C17.7366 10.2011 18 10.837 18 11.5C18 12.163 17.7366 12.7989 17.2678 13.2678C16.7989 13.7366 16.163 14 15.5 14ZM15.5 10C14.67 10 14 10.67 14 11.5C14 12.33 14.67 13 15.5 13C16.33 13 17 12.33 17 11.5C17 10.67 16.33 10 15.5 10Z" fill="#898A8B"/>
<path d="M21.5 18C21.22 18 21 17.78 21 17.5C21 17.22 21.22 17 21.5 17C21.78 17 22 16.78 22 16.5C22 15.837 21.7366 15.2011 21.2678 14.7322C20.7989 14.2634 20.163 14 19.5 14L18.5 14C18.22 14 18 13.78 18 13.5C18 13.22 18.22 13 18.5 13C19.33 13 20 12.33 20 11.5C20 10.67 19.33 10 18.5 10C18.22 10 18 9.78 18 9.5C18 9.22 18.22 9 18.5 9C19.163 9 19.7989 9.26339 20.2678 9.73223C20.7366 10.2011 21 10.837 21 11.5C21 12.12 20.78 12.68 20.4 13.12C21.89 13.52 23 14.88 23 16.5C23 17.33 22.33 18 21.5 18ZM9.5 18C8.67 18 8 17.33 8 16.5C8 14.88 9.1 13.52 10.6 13.12C10.23 12.68 10 12.12 10 11.5C10 10.837 10.2634 10.2011 10.7322 9.73223C11.2011 9.26339 11.837 9 12.5 9C12.78 9 13 9.22 13 9.5C13 9.78 12.78 10 12.5 10C11.67 10 11 10.67 11 11.5C11 12.33 11.67 13 12.5 13C12.78 13 13 13.22 13 13.5C13 13.78 12.78 14 12.5 14L11.5 14C10.837 14 10.2011 14.2634 9.73223 14.7322C9.26339 15.2011 9 15.837 9 16.5C9 16.78 9.22 17 9.5 17C9.78 17 10 17.22 10 17.5C10 17.78 9.78 18 9.5 18ZM18.5 21L12.5 21C11.67 21 11 20.33 11 19.5L11 18.5C11 16.57 12.57 15 14.5 15L16.5 15C18.43 15 20 16.57 20 18.5L20 19.5C20 20.33 19.33 21 18.5 21ZM14.5 16C13.837 16 13.2011 16.2634 12.7322 16.7322C12.2634 17.2011 12 17.837 12 18.5L12 19.5C12 19.78 12.22 20 12.5 20L18.5 20C18.78 20 19 19.78 19 19.5L19 18.5C19 17.837 18.7366 17.2011 18.2678 16.7322C17.7989 16.2634 17.163 16 16.5 16L14.5 16Z" fill="#898A8B"/>
</g>
<defs>
<clipPath id="clip0_83_63">
<rect width="15" height="16" fill="white" transform="translate(8 7)"/>
</clipPath>
</defs>
</svg>
