<svg width="30" height="30" viewBox="0 0 30 30" fill="none" xmlns="http://www.w3.org/2000/svg">
<path d="M18.4625 19.375H22.1625C22.34 19.375 22.4887 19.315 22.6087 19.195C22.7287 19.075 22.7888 18.9267 22.7888 18.75V11.25C22.7888 11.0725 22.7287 10.9242 22.6087 10.805C22.4887 10.6858 22.3404 10.6258 22.1638 10.625H18.4613C18.2846 10.625 18.1363 10.685 18.0163 10.805C17.8963 10.925 17.8363 11.0733 17.8363 11.25V18.75C17.8363 18.9275 17.8963 19.0758 18.0163 19.195C18.1363 19.3142 18.2846 19.3742 18.4613 19.375M19.0863 18.125V11.875H21.5388V18.125H19.0863ZM11.2987 19.375H15C15.1775 19.375 15.3258 19.315 15.445 19.195C15.5642 19.075 15.6242 18.9267 15.625 18.75V11.25C15.625 11.0725 15.565 10.9242 15.445 10.805C15.325 10.6858 15.1767 10.6258 15 10.625H11.2987C11.1212 10.625 10.9725 10.685 10.8525 10.805C10.7325 10.925 10.6733 11.0733 10.675 11.25V18.75C10.675 18.9275 10.7346 19.0758 10.8537 19.195C10.9729 19.3142 11.1217 19.3742 11.3 19.375M11.925 18.125V11.875H14.375V18.125H11.925ZM7.2125 19.375H8.4625V10.625H7.2125V19.375ZM3.75 23.75V6.25H26.25V23.75H3.75ZM5 22.5H25V7.5H5V22.5Z" fill="#EC841A"/>
</svg>
