<svg width="25" height="25" viewBox="0 0 25 25" fill="none" xmlns="http://www.w3.org/2000/svg">
<path d="M24.3359 15.4917L15.4963 24.3278C15.2694 24.5519 15.0142 24.7199 14.7307 24.8319C14.4473 24.944 14.1648 25 13.8832 25C13.6016 25 13.3214 24.944 13.0426 24.8319C12.7638 24.7199 12.5109 24.5519 12.2839 24.3278L0.665537 12.7361C0.446007 12.5352 0.280202 12.2954 0.168121 12.0167C0.0560404 11.7389 0 11.4463 0 11.1389V2.26944C0 1.64537 0.218604 1.11111 0.655811 0.666667C1.09302 0.222222 1.63119 0 2.27033 0H11.1432C11.4433 0 11.7347 0.0606482 12.0172 0.181944C12.2997 0.303241 12.5438 0.467129 12.7494 0.673611L24.3359 12.2625C24.5674 12.4894 24.736 12.7444 24.8416 13.0278C24.9472 13.3111 25 13.5968 25 13.8847C25 14.1727 24.9472 14.4551 24.8416 14.7319C24.736 15.0088 24.5674 15.262 24.3359 15.4917ZM14.5056 23.3444L23.3438 14.5083C23.5216 14.3306 23.6106 14.1213 23.6106 13.8806C23.6106 13.6398 23.5216 13.4306 23.3438 13.2528L11.4836 1.41667H2.27033C2.02023 1.41667 1.81089 1.49676 1.64231 1.65694C1.4728 1.81713 1.38804 2.02176 1.38804 2.27083V11.1319C1.38804 11.2394 1.4061 11.3463 1.44223 11.4528C1.47743 11.5602 1.53949 11.6583 1.62841 11.7472L13.2496 23.3444C13.4274 23.5222 13.6363 23.6111 13.8762 23.6111C14.1171 23.6111 14.3269 23.5222 14.5056 23.3444ZM4.93108 6.33056C5.32105 6.33056 5.65173 6.19537 5.92314 5.925C6.19454 5.65463 6.3307 5.32685 6.33163 4.94167C6.33163 4.54815 6.19639 4.21389 5.92592 3.93889C5.65544 3.66389 5.32754 3.52593 4.9422 3.525C4.54853 3.525 4.21414 3.66157 3.93903 3.93472C3.66392 4.20787 3.52637 4.53981 3.52637 4.93056C3.52637 5.3213 3.663 5.65185 3.93625 5.92222C4.20951 6.19259 4.54112 6.3287 4.93108 6.33056Z" fill="#C4AD93"/>
</svg>
