<svg width="30" height="30" viewBox="0 0 30 30" fill="none" xmlns="http://www.w3.org/2000/svg">
<path d="M10.385 21.875C10.0992 21.875 9.85917 21.7783 9.66501 21.585C9.47084 21.3917 9.37418 21.1517 9.37501 20.865V9.135C9.37501 8.84917 9.47167 8.60917 9.66501 8.415C9.85834 8.22083 10.0983 8.12417 10.385 8.125H10.865C11.1517 8.125 11.3917 8.22167 11.585 8.415C11.7783 8.60833 11.875 8.84833 11.875 9.135V20.865C11.875 21.1517 11.7783 21.3917 11.585 21.585C11.3917 21.7783 11.1517 21.875 10.865 21.875H10.385ZM19.135 21.875C18.8492 21.875 18.6092 21.7783 18.415 21.585C18.2208 21.3917 18.1242 21.1517 18.125 20.865V9.135C18.125 8.84917 18.2217 8.60917 18.415 8.415C18.6083 8.22083 18.8483 8.12417 19.135 8.125H19.615C19.9017 8.125 20.1417 8.22167 20.335 8.415C20.5283 8.60833 20.625 8.84833 20.625 9.135V20.865C20.625 21.1517 20.5283 21.3917 20.335 21.585C20.1417 21.7783 19.9017 21.875 19.615 21.875H19.135ZM4.37501 26.25C4.19751 26.25 4.04918 26.19 3.93001 26.07C3.81084 25.95 3.75084 25.8013 3.75001 25.6238C3.74918 25.4463 3.80918 25.2979 3.93001 25.1787C4.05084 25.0596 4.19918 25 4.37501 25H25.625C25.8025 25 25.9508 25.06 26.07 25.18C26.1892 25.3 26.2492 25.4487 26.25 25.6262C26.2508 25.8037 26.1908 25.9521 26.07 26.0713C25.9492 26.1904 25.8008 26.25 25.625 26.25H4.37501ZM4.37501 5C4.19751 5 4.04918 4.94 3.93001 4.82C3.81084 4.7 3.75084 4.55125 3.75001 4.37375C3.74918 4.19625 3.80918 4.04792 3.93001 3.92875C4.05084 3.80958 4.19918 3.75 4.37501 3.75H25.625C25.8025 3.75 25.9508 3.81 26.07 3.93C26.1892 4.05 26.2492 4.19875 26.25 4.37625C26.2508 4.55375 26.1908 4.70208 26.07 4.82125C25.9492 4.94042 25.8008 5 25.625 5H4.37501Z" fill="#EC841A"/>
</svg>
