<svg width="28" height="28" viewBox="0 0 28 28" fill="none" xmlns="http://www.w3.org/2000/svg">
<path d="M28 22.5168V27.5051C28 27.6331 27.933 27.7559 27.8136 27.8464C27.6943 27.9369 27.5324 27.9877 27.3636 27.9877C27.1949 27.9877 27.033 27.9369 26.9137 27.8464C26.7943 27.7559 26.7273 27.6331 26.7273 27.5051V22.5168C26.7215 21.0333 26.2581 19.5714 25.3741 18.248C24.4902 16.9245 23.2101 15.7763 21.6364 14.895V22.9583C21.6365 23.0624 21.5923 23.1636 21.5104 23.2471C21.4285 23.3305 21.3132 23.3916 21.1817 23.4213C21.0503 23.451 20.9097 23.4477 20.7809 23.4119C20.6521 23.3761 20.542 23.3097 20.467 23.2225L18.7727 21.255L18.7536 21.232C18.418 20.7878 17.8634 20.4628 17.2118 20.3287C16.5601 20.1945 15.8649 20.2621 15.2791 20.5167C14.6932 20.7712 14.2647 21.1918 14.0878 21.6859C13.9109 22.18 14 22.7071 14.3357 23.1514L17.8675 27.2409C17.9163 27.2939 17.9506 27.3537 17.9684 27.4169C17.9861 27.4801 17.987 27.5454 17.9708 27.6088C17.9547 27.6722 17.9219 27.7326 17.8745 27.7862C17.827 27.8399 17.7658 27.8858 17.6945 27.9212C17.6233 27.9566 17.5433 27.9807 17.4595 27.9923C17.3757 28.0038 17.2896 28.0024 17.2065 27.9883C17.1234 27.9741 17.0448 27.9474 16.9756 27.9098C16.9063 27.8722 16.8477 27.8244 16.8032 27.7693L13.2618 23.6677C13.2545 23.6605 13.2481 23.6528 13.2427 23.6448C12.7426 22.9811 12.6089 22.1943 12.8708 21.4562C13.1328 20.718 13.769 20.0883 14.6408 19.7045C15.5126 19.3207 16.5492 19.2139 17.5244 19.4074C18.4997 19.6009 19.3344 20.079 19.8466 20.7374L20.3668 21.3406V6.2731C20.3668 6.14512 20.2998 6.02239 20.1804 5.93189C20.0611 5.8414 19.8992 5.79056 19.7305 5.79056H17.1818C17.013 5.79056 16.8512 5.73972 16.7318 5.64922C16.6125 5.55873 16.5455 5.43599 16.5455 5.30801C16.5455 5.18003 16.6125 5.05729 16.7318 4.9668C16.8512 4.8763 17.013 4.82546 17.1818 4.82546H19.7273C20.2336 4.82546 20.7192 4.97798 21.0772 5.24947C21.4352 5.52095 21.6364 5.88916 21.6364 6.2731V13.726C23.5818 14.671 25.1837 15.9708 26.2954 17.5065C27.4072 19.0423 27.9932 20.7649 28 22.5168ZM4.45455 4.82546H1.90909C1.40277 4.82546 0.917184 4.97798 0.55916 5.24947C0.201136 5.52095 0 5.88916 0 6.2731V22.6797C0 22.8077 0.0670454 22.9304 0.186387 23.0209C0.305728 23.1114 0.46759 23.1622 0.636364 23.1622C0.805138 23.1622 0.966999 23.1114 1.08634 23.0209C1.20568 22.9304 1.27273 22.8077 1.27273 22.6797V6.2731C1.27273 6.14512 1.33977 6.02239 1.45911 5.93189C1.57846 5.8414 1.74032 5.79056 1.90909 5.79056H4.45455C4.62332 5.79056 4.78518 5.73972 4.90452 5.64922C5.02386 5.55873 5.09091 5.43599 5.09091 5.30801C5.09091 5.18003 5.02386 5.05729 4.90452 4.9668C4.78518 4.8763 4.62332 4.82546 4.45455 4.82546ZM16.3593 10.7572C16.3002 10.7123 16.23 10.6767 16.1528 10.6524C16.0755 10.6281 15.9927 10.6156 15.9091 10.6156C15.8255 10.6156 15.7427 10.6281 15.6654 10.6524C15.5881 10.6767 15.518 10.7123 15.4589 10.7572L11.4545 13.7936V0.482546C11.4545 0.354567 11.3875 0.23183 11.2682 0.141335C11.1488 0.0508395 10.987 0 10.8182 0C10.6494 0 10.4875 0.0508395 10.3682 0.141335C10.2489 0.23183 10.1818 0.354567 10.1818 0.482546V13.7936L6.1775 10.7572C6.05809 10.6666 5.89614 10.6158 5.72727 10.6158C5.5584 10.6158 5.39645 10.6666 5.27705 10.7572C5.15764 10.8477 5.09055 10.9705 5.09055 11.0986C5.09055 11.2266 5.15764 11.3494 5.27705 11.44L10.368 15.3003C10.4271 15.3452 10.4972 15.3808 10.5745 15.4051C10.6517 15.4294 10.7346 15.4419 10.8182 15.4419C10.9018 15.4419 10.9846 15.4294 11.0619 15.4051C11.1391 15.3808 11.2093 15.3452 11.2684 15.3003L16.3593 11.44C16.4185 11.3952 16.4654 11.3419 16.4974 11.2834C16.5295 11.2248 16.546 11.162 16.546 11.0986C16.546 11.0352 16.5295 10.9724 16.4974 10.9138C16.4654 10.8552 16.4185 10.802 16.3593 10.7572Z" fill="#8D1B22"/>
</svg>
